<?xml version="1.0" encoding="UTF-8"?><!DOCTYPE svg PUBLIC "-//W3C//DTD SVG 1.1//EN" "http://www.w3.org/Graphics/SVG/1.1/DTD/svg11.dtd"><svg xmlns="http://www.w3.org/2000/svg" xmlns:xlink="http://www.w3.org/1999/xlink" xmlns:sketch="http://www.bohemiancoding.com/sketch/ns"><defs><style type="text/css"><![CDATA[
@font-face { font-family: ifont; src: url("http://at.alicdn.com/t/font_1442373896_4754455.eot?#iefix") format("embedded-opentype"), url("http://at.alicdn.com/t/font_1442373896_4754455.woff") format("woff"), url("http://at.alicdn.com/t/font_1442373896_4754455.ttf") format("truetype"), url("http://at.alicdn.com/t/font_1442373896_4754455.svg#ifont") format("svg"); }

]]></style><style type="text/css"><![CDATA[
@font-face { font-family: ifont; src: url("http://at.alicdn.com/t/font_1442373896_4754455.eot?#iefix") format("embedded-opentype"), url("http://at.alicdn.com/t/font_1442373896_4754455.woff") format("woff"), url("http://at.alicdn.com/t/font_1442373896_4754455.ttf") format("truetype"), url("http://at.alicdn.com/t/font_1442373896_4754455.svg#ifont") format("svg"); }

]]></style><style type="text/css"><![CDATA[
@font-face { font-family: ifont; src: url("http://at.alicdn.com/t/font_1442373896_4754455.eot?#iefix") format("embedded-opentype"), url("http://at.alicdn.com/t/font_1442373896_4754455.woff") format("woff"), url("http://at.alicdn.com/t/font_1442373896_4754455.ttf") format("truetype"), url("http://at.alicdn.com/t/font_1442373896_4754455.svg#ifont") format("svg"); }

]]></style><style type="text/css"><![CDATA[
@font-face { font-family: ifont; src: url("http://at.alicdn.com/t/font_1442373896_4754455.eot?#iefix") format("embedded-opentype"), url("http://at.alicdn.com/t/font_1442373896_4754455.woff") format("woff"), url("http://at.alicdn.com/t/font_1442373896_4754455.ttf") format("truetype"), url("http://at.alicdn.com/t/font_1442373896_4754455.svg#ifont") format("svg"); }

]]></style><style type="text/css"><![CDATA[
@font-face { font-family: ifont; src: url("http://at.alicdn.com/t/font_1442373896_4754455.eot?#iefix") format("embedded-opentype"), url("http://at.alicdn.com/t/font_1442373896_4754455.woff") format("woff"), url("http://at.alicdn.com/t/font_1442373896_4754455.ttf") format("truetype"), url("http://at.alicdn.com/t/font_1442373896_4754455.svg#ifont") format("svg"); }

]]></style><style type="text/css"><![CDATA[
@font-face { font-family: ifont; src: url("http://at.alicdn.com/t/font_1442373896_4754455.eot?#iefix") format("embedded-opentype"), url("http://at.alicdn.com/t/font_1442373896_4754455.woff") format("woff"), url("http://at.alicdn.com/t/font_1442373896_4754455.ttf") format("truetype"), url("http://at.alicdn.com/t/font_1442373896_4754455.svg#ifont") format("svg"); }

]]></style><style type="text/css"><![CDATA[
@font-face { font-family: ifont; src: url("http://at.alicdn.com/t/font_1442373896_4754455.eot?#iefix") format("embedded-opentype"), url("http://at.alicdn.com/t/font_1442373896_4754455.woff") format("woff"), url("http://at.alicdn.com/t/font_1442373896_4754455.ttf") format("truetype"), url("http://at.alicdn.com/t/font_1442373896_4754455.svg#ifont") format("svg"); }

]]></style><style type="text/css"><![CDATA[
@font-face { font-family: ifont; src: url("http://at.alicdn.com/t/font_1442373896_4754455.eot?#iefix") format("embedded-opentype"), url("http://at.alicdn.com/t/font_1442373896_4754455.woff") format("woff"), url("http://at.alicdn.com/t/font_1442373896_4754455.ttf") format("truetype"), url("http://at.alicdn.com/t/font_1442373896_4754455.svg#ifont") format("svg"); }

]]></style></defs><symbol id="apply" viewBox="0 0 200 200"><g class="transform-group"><g transform="scale(0.1953125, 0.1953125)"><path d="M190.231087 546.83539l155.550729-78.723969c0 0 139.522684 166.099992 161.116491 408.477228l-119.148657 51.347458C387.74965 927.936107 228.564138 744.602615 190.231087 546.83539zM412.607804 942.581666 514.345929 903.82292 494.96758 991.021911ZM1019.738441 900.454196 1019.738441 124.669394c0-87.942935-61.703317-113.511263-95.000678-114.752534L67.67789 9.91686l0 1.702782C61.596382 12.346189 55.479057 13.551644 49.292148 15.804964-79.645456 62.524009 112.44856 456.161251 182.341397 526.125719l155.142429-78.29725c0 0-75.337849-297.626561-185.976692-401.599587l772.556271-0.01842c2.411933 0.089028 59.363016 3.121084 59.363016 78.45791l0.033769 776.776386c0 0.355087 1.347694 38.157042-22.198581 62.980403-14.607696 15.424294-36.489052 23.260773-65.035202 23.260773L153.494395 987.685933c-3.670599 0-90.000803-1.028423-90.000803-90.177835L63.493591 733.572398 27.180548 733.572398l0 163.936723c0 100.036367 82.624812 126.489856 126.312824 126.489856l742.733035 0c38.900985 0 69.647243-11.631922 91.419106-34.609239C1022.184143 952.936501 1019.843842 901.659651 1019.738441 900.454196zM576.439126 263.820618l296.52446 0 0 72.625064-296.52446 0 0-72.625064ZM434.186262 445.38072l435.764712 0 0 69.610404-435.764712 0 0-69.610404ZM582.4664 660.240229l284.46889 0 0 75.637678-284.46889 0 0-75.637678Z"/></g></g></symbol><symbol id="benefit" viewBox="0 0 200 200"><g class="transform-group"><g transform="scale(0.1953125, 0.1953125)"><path d="M713.150788 124.492362c-114.762767 0-203.049532 103.725386-203.049532 103.725386s-88.266299-103.725386-203.029066-103.725386c-90.496084 0-244.976434 79.45461-244.976434 251.600295 0 275.865955 406.077575 523.067057 448.0055 523.067057 41.941228 0 448.03006-247.200078 448.03006-523.067057C958.132338 203.946972 803.620265 124.492362 713.150788 124.492362zM713.150788 217.187531c39.035038 0 152.284335 39.117926 152.284335 158.905126 0 183.17181-265.36581 378.135176-355.333868 424.340521-89.953731-46.215578-355.310332-241.182015-355.310332-424.340521 0-119.7872 113.251344-158.905126 152.281265-158.905126 57.661258 0 115.425869 51.646264 132.437312 71.112618 17.48114 21.073968 42.800805 33.115212 70.190619 33.283034 0.193405 0 0.388856 0 0.583285 0 27.152407 0 52.404534-12.144598 70.02075-32.844036C597.699336 268.834818 655.482367 217.187531 713.150788 217.187531L713.150788 217.187531zM510.101255 865.09385c-0.779759 0-1.541099-0.12996-2.27788-0.404206-4.093225-1.5104-9.587356-3.928472-15.854083-7.015787-3.282766-1.606591-4.628414-5.578042-3.01466-8.861832 1.619894-3.288906 5.579065-4.63353 8.861832-3.01466 4.866844 2.393513 8.983605 4.259 12.284791 5.581112 1.809205-0.731664 3.886517-1.635243 6.206352-2.700505 3.331885-1.484817 7.267521-0.035816 8.783037 3.278673 1.5104 3.337002 0.055259 7.252171-3.270487 8.774851-3.728928 1.694595-6.882757 3.013637-9.428743 3.947915C511.649518 864.946494 510.874875 865.09385 510.101255 865.09385zM554.021557 842.87378c-2.27788 0-4.50664-1.187035-5.736655-3.313465-1.832741-3.15997-0.74292-7.217379 2.424212-9.036817 6.912433-4.01443 14.405081-8.491395 22.3838-13.467733 3.075035-1.912559 7.181563-1.003863 9.117658 2.106987 1.937119 3.113921 0.99363 7.198959-2.108011 9.125845-8.106632 5.067412-15.72617 9.635451-22.779819 13.697977C556.274878 842.587254 555.144124 842.87378 554.021557 842.87378zM460.225311 839.389422c-1.151219 0-2.314719-0.291642-3.362584-0.905626-7.071046-4.179183-14.642488-8.820899-22.658046-13.888312-3.076058-1.961678-3.996011-6.052856-2.02717-9.148357 1.948375-3.080152 6.02318-3.993964 9.142218-2.032286 7.856945 5.008061 15.31787 9.562796 22.262026 13.656021 3.15383 1.862417 4.201695 5.930059 2.350534 9.074679C464.683856 838.233086 462.490911 839.389422 460.225311 839.389422zM609.679182 807.64544c-2.108011 0-4.183276-1.003863-5.463432-2.88163-2.065032-3.007497-1.302669-7.139607 1.724271-9.196453 6.913457-4.746094 14.081717-9.757225 21.415752-15.050788 2.954285-2.15406 7.095605-1.471514 9.239432 1.49198 2.148943 2.965541 1.473561 7.107885-1.479701 9.246595-7.442506 5.360078-14.678304 10.432607-21.701255 15.226796C612.274286 807.272957 610.971617 807.64544 609.679182 807.64544zM404.835793 803.740504c-1.302669 0-2.62478-0.387833-3.76986-1.174756-7.016811-4.880147-14.229073-9.995655-21.586644-15.390525-2.960425-2.156106-3.593851-6.29845-1.437745-9.239432 2.163269-2.973728 6.29845-3.613294 9.252735-1.438769 7.272637 5.310959 14.385639 10.379395 21.317515 15.177678 2.997264 2.096754 3.752464 6.219655 1.675152 9.223059C408.983253 802.747897 406.930501 803.740504 404.835793 803.740504zM662.847102 768.809947c-1.966795 0-3.916193-0.87595-5.220908-2.539846-2.25332-2.898003-1.735527-7.04751 1.144056-9.305947 6.742565-5.250584 13.58132-10.688433 20.484543-16.32992 2.825348-2.314719 6.999414-1.905396 9.318226 0.931209 2.314719 2.834558 1.90028 6.993275-0.931209 9.31311-6.986111 5.720282-13.906731 11.238972-20.719904 16.537651C665.709289 768.364809 664.277684 768.809947 662.847102 768.809947zM351.907327 764.540713c-1.437745 0-2.880607-0.463558-4.099365-1.413186-6.791683-5.372358-13.679557-10.9197-20.61655-16.677844-2.801812-2.323928-3.203972-6.499018-0.865717-9.318226 2.326998-2.805906 6.511297-3.191692 9.325389-0.870834 6.858198 5.682419 13.643742 11.17655 20.355607 16.470113 2.869351 2.258437 3.362584 6.42534 1.103124 9.295714C355.8051 763.680113 353.855702 764.540713 351.907327 764.540713zM713.5816 726.795041c-1.839905 0-3.671623-0.760317-4.975315-2.240017-2.410909-2.765997-2.136663-6.936993 0.603751-9.361205 6.224772-5.450129 12.449543-11.079336 18.705014-16.859993l5.219885 4.191462 3.959172 5.351891c-6.511297 6.037507-12.840446 11.745509-19.138896 17.279548C716.69552 726.255759 715.129862 726.795041 713.5816 726.795041zM301.463448 722.223932c-1.571798 0-3.149736-0.556679-4.41045-1.683339-4.568039-4.074805-9.142218-8.239662-13.733792-12.480242l-5.835915-5.432733c-2.661619-2.503007-2.794649-6.693446-0.286526-9.361205 2.51017-2.662643 6.699586-2.777253 9.368368-0.284479l5.737678 5.351891c4.5312 4.191462 9.05012 8.308223 13.570063 12.322653 2.729158 2.428306 2.960425 6.625908 0.530073 9.354042C305.098231 721.471802 303.290049 722.223932 301.463448 722.223932zM761.58387 681.706123c-1.694595 0-3.374864-0.650823-4.666276-1.930979-2.601244-2.581802-2.601244-6.77224-0.030699-9.356089 6.068206-6.096858 12.132318-12.363585 18.187221-18.807345 2.496867-2.686179 6.704702-2.795673 9.343809-0.291642 2.679016 2.490727 2.805906 6.67912 0.296759 9.341762-6.125511 6.547113-12.289907 12.924357-18.436908 19.088754C764.983293 681.055301 763.277442 681.706123 761.58387 681.706123zM253.772262 676.79016c-1.724271 0-3.429099-0.656963-4.719488-1.979074-6.121418-6.230911-12.236696-12.650111-18.315134-19.241226-2.467191-2.686179-2.302439-6.876618 0.388856-9.361205 2.716878-2.452865 6.876618-2.290159 9.361205 0.38988 5.975085 6.492878 11.993149 12.803607 18.005073 18.931165 2.569522 2.612501 2.521426 6.797823-0.084934 9.361205C257.116427 676.157757 255.435135 676.79016 253.772262 676.79016zM806.234813 633.285321c-1.5104 0-3.040243-0.517793-4.288676-1.576915-2.783393-2.369977-3.119037-6.54302-0.748037-9.330506 5.598508-6.585999 11.115152-13.316284 16.537651-20.186761 2.246157-2.879584 6.41306-3.367701 9.30083-1.101077 2.868327 2.258437 3.354398 6.42534 1.088798 9.30083-5.517667 6.997368-11.145851 13.861706-16.84055 20.567431C809.974997 632.499421 808.110533 633.285321 806.234813 633.285321zM209.528596 628.004037c-1.888 0-3.76986-0.816598-5.079692-2.382257-5.652743-6.78452-11.225669-13.691837-16.658402-20.75572-2.222621-2.90005-1.681292-7.04751 1.212618-9.283434 2.886747-2.204202 7.064906-1.691525 9.28855 1.212618 5.329379 6.907317 10.768251 13.691837 16.317641 20.343327 2.345418 2.800789 1.966795 6.979972-0.835018 9.31925C212.531999 627.498524 211.026716 628.004037 209.528596 628.004037zM846.459956 581.12331c-1.309832 0-2.614547-0.37146-3.771907-1.173732-3.01466-2.084475-3.758604-6.213515-1.682315-9.209756 4.935406-7.132444 9.716292-14.391778 14.289448-21.750373 1.966795-3.119037 6.068206-4.00829 9.136078-2.12029 3.100618 1.938142 4.044106 6.025227 2.121314 9.130961-4.711302 7.534604-9.595542 14.978133-14.654768 22.268166C850.618673 580.130703 848.548524 581.12331 846.459956 581.12331zM169.88469 575.434751c-2.125407 0-4.221138-1.02433-5.500271-2.922563-4.964058-7.383154-9.775644-14.874779-14.368242-22.463618-1.88186-3.131317-0.889253-7.198959 2.235924-9.094122 3.131317-1.87572 7.205099-0.889253 9.094122 2.241041 4.488221 7.40669 9.171893 14.716166 14.032598 21.921265 2.040473 3.0208 1.242294 7.150864-1.796926 9.191336C172.435793 575.070454 171.163823 575.434751 169.88469 575.434751zM880.469538 524.784164c-1.030469 0-2.066055-0.237407-3.027963-0.743944-3.25923-1.662873-4.541433-5.664-2.862187-8.904811 3.971451-7.722892 7.680936-15.519462 11.122315-23.394826 1.449002-3.368724 5.425569-4.848425 8.696056-3.430122 3.367701 1.450025 4.89038 5.353938 3.429099 8.704243-3.53757 8.15575-7.374968 16.213263-11.480472 24.162306C885.17163 523.473309 882.856911 524.784164 880.469538 524.784164zM136.646682 518.594185c-2.430352 0-4.780887-1.356904-5.938246-3.683902-4.002151-8.106632-7.729032-16.317641-11.079336-24.387433-1.400906-3.374864 0.207731-7.248078 3.581572-8.650007 3.39226-1.425466 7.254218 0.212848 8.655124 3.581572 3.288906 7.948019 6.876618 15.812127 10.720156 23.583115 1.614777 3.288906 0.268106 7.260357-3.00238 8.874111C138.639059 518.377244 137.639289 518.594185 136.646682 518.594185zM905.538493 464.010009c-0.644683 0-1.303692-0.084934-1.948375-0.298805-3.496637-1.072425-5.463432-4.780887-4.371564-8.265244 2.579755-8.380878 4.780887-16.767895 6.551206-24.90011 0.76134-3.569292 4.362354-5.858428 7.865131-5.066389 3.587712 0.76134 5.841032 4.28663 5.067412 7.863085-1.834788 8.508791-4.136204 17.261129-6.841825 26.001187C910.984528 462.189547 908.371004 464.010009 905.538493 464.010009zM112.698247 457.32782c-2.886747 0-5.53097-1.899256-6.364965-4.793166-2.491751-8.721639-4.585435-17.529235-6.243191-26.190499-0.682545-3.599991 1.669012-7.057743 5.256724-7.747451 3.514033-0.681522 7.071046 1.675152 7.747451 5.262864 1.577938 8.276501 3.586688 16.694217 5.962805 25.027 1.011027 3.507894-1.029446 7.181563-4.5312 8.18031C113.909841 457.256188 113.294834 457.32782 112.698247 457.32782zM917.848866 399.515113c-0.152473 0-0.313132 0-0.451278-0.01535-3.64911-0.243547-6.41306-3.402493-6.169513-7.049556 0.36532-5.442966 0.553609-10.887978 0.553609-16.35755 0-3.130294-0.061398-6.205329-0.188288-9.244548-0.140193-3.651157 2.685155-6.737448 6.346545-6.895037 3.623527 0.078795 6.722098 2.703575 6.895037 6.349615 0.12689 3.219321 0.187265 6.477528 0.187265 9.78997 0 5.753027-0.187265 11.510148-0.573051 17.234523C924.205645 396.836097 921.307641 399.515113 917.848866 399.515113zM102.01493 392.538211c-3.538593 0-6.480598-2.789533-6.620791-6.361895-0.127913-3.358491-0.188288-6.707772-0.188288-10.083659 0-5.783727 0.188288-11.432377 0.590448-16.956184 0.268106-3.64604 3.478218-6.42534 7.083326-6.127558 3.654226 0.271176 6.395664 3.438309 6.133697 7.086395-0.3776 5.211698-0.566912 10.553357-0.566912 15.997346 0 3.192715 0.061398 6.389524 0.189312 9.56996 0.140193 3.648087-2.704598 6.723122-6.358825 6.875594C102.184799 392.538211 102.093724 392.538211 102.01493 392.538211zM913.116075 334.087984c-3.027963 0-5.749958-2.080382-6.450922-5.15644-1.90028-8.331759-4.336772-16.539698-7.229658-24.378224-1.26583-3.429099 0.481977-7.241938 3.904936-8.508791 3.440355-1.282203 7.253194 0.490164 8.513908 3.903913 3.100618 8.393157 5.693676 17.148565 7.716752 26.056446 0.817622 3.572362-1.419326 7.114025-4.994758 7.91425C914.090263 334.039889 913.596006 334.087984 913.116075 334.087984zM108.757494 327.340303c-0.559748 0-1.12666-0.064468-1.686409-0.218988-3.544733-0.932232-5.652743-4.555759-4.720511-8.086166 2.320858-8.815783 5.232165-17.480116 8.642844-25.76992 1.38351-3.38612 5.256724-5.030573 8.636704-3.592828 3.373841 1.382487 4.994758 5.250584 3.592828 8.636704-3.178389 7.744381-5.895267 15.854083-8.063653 24.091698C114.378515 325.375555 111.68722 327.340303 108.757494 327.340303zM888.272247 273.478582c-2.205225 0-4.374634-1.11438-5.623068-3.130294-4.432962-7.123234-9.422603-14.081717-14.843056-20.662599-2.314719-2.820232-1.913583-6.998391 0.913812-9.324366 2.808976-2.302439 6.972808-1.916653 9.325389 0.919952 5.768377 7.018857 11.102872 14.455223 15.85306 22.084994 1.930979 3.103688 0.98749 7.178493-2.131547 9.117658C890.683157 273.15317 889.477702 273.478582 888.272247 273.478582zM494.064001 271.188422c-0.889253 0-1.808182-0.179079-2.672876-0.566912-6.352685-2.807952-12.090363-7.074116-16.590863-12.364609-0.249687-0.282433-2.15099-2.445702-5.500271-5.895267-2.533706-2.62478-2.467191-6.816243 0.158612-9.361205 2.612501-2.549056 6.80294-2.473331 9.355065 0.152473 3.599991 3.711532 5.652743 6.05081 5.969968 6.40078 3.325745 3.894703 7.417947 6.958482 11.961426 8.959046 3.331885 1.476631 4.860704 5.380544 3.374864 8.730848C499.029082 269.717931 496.59873 271.188422 494.064001 271.188422zM531.840372 268.088828c-2.161223 0-4.269233-1.046842-5.529947-3.003404-2.009773-3.051499-1.157359-7.16519 1.905396-9.153474 2.644223-1.735527 5.019317-3.843538 7.102768-6.261611 0.206708-0.243547 4.000104-4.577249 10.809183-11.246135 2.613524-2.552126 6.791683-2.524496 9.361205 0.100284 2.564405 2.613524 2.51017 6.800893-0.103354 9.361205-6.254447 6.144954-9.800203 10.140964-10.032494 10.42135-2.863211 3.341095-6.193049 6.288217-9.897418 8.691963C534.344402 267.737834 533.094946 268.088828 531.840372 268.088828zM135.715473 267.660062c-1.279133 0-2.558265-0.360204-3.697205-1.12666-3.02694-2.044566-3.837398-6.155187-1.796926-9.194406 4.988618-7.40976 10.573823-14.650675 16.590863-21.502733 2.430352-2.741437 6.603395-3.000334 9.343809-0.60989 2.752694 2.418073 3.01466 6.611581 0.615007 9.353019-5.65172 6.42534-10.890025 13.201673-15.561417 20.160155C139.929448 266.639826 137.83474 267.660062 135.715473 267.660062zM444.821483 227.724515c-1.468444 0-2.935865-0.474814-4.16588-1.473561-6.760984-5.484921-13.728676-10.680247-20.703531-15.464203-3.0208-2.055822-3.78214-6.181793-1.717108-9.194406 2.082428-3.01159 6.224772-3.77907 9.196453-1.720178 7.272637 4.979408 14.519692 10.384511 21.554922 16.08535 2.844791 2.302439 3.28379 6.480598 0.980327 9.31311C448.665021 226.88438 446.752462 227.724515 444.821483 227.724515zM845.149101 224.092801c-1.51654 0-3.02694-0.502443-4.270257-1.553379-6.468318-5.445012-13.356193-10.588149-20.484543-15.308661-3.046383-2.018983-3.880377-6.130627-1.862417-9.182127 2.044566-3.050476 6.16849-3.839445 9.184173-1.859347 7.541767 5.002944 14.845103 10.461259 21.697161 16.216333 2.792603 2.351558 3.15383 6.526647 0.804319 9.337669C848.912821 223.290529 847.038124 224.092801 845.149101 224.092801zM580.56612 223.784786c-1.967818 0-3.934612-0.880043-5.237281-2.561335-2.235924-2.895957-1.705851-7.05058 1.174756-9.299807 7.205099-5.585205 14.57495-10.848069 21.884426-15.619746 3.01466-2.020006 7.14984-1.191128 9.153474 1.912559 2.004657 3.054569 1.152243 7.166213-1.918699 9.157567-7.004531 4.592598-14.062274 9.647731-21.00029 15.026228C583.429331 223.327368 581.984423 223.784786 580.56612 223.784786zM180.44521 219.709981c-1.955538 0-3.880377-0.867764-5.195326-2.509147-2.2656-2.868327-1.772366-7.03523 1.084705-9.31004 7.058766-5.573949 14.519692-10.8143 22.182208-15.559371 3.069919-1.90028 7.169283-0.971118 9.111518 2.134617 1.930979 3.115967 0.969071 7.190773-2.131547 9.115612-7.241938 4.488221-14.294564 9.42772-20.939915 14.702863C183.33912 219.244376 181.895235 219.709981 180.44521 219.709981zM389.658116 191.868889c-0.99977 0-1.992377-0.223081-2.936889-0.688685-7.850805-3.888564-15.761985-7.266497-23.51046-10.034541-3.459798-1.227967-5.237281-5.016247-4.00829-8.457626 1.224898-3.449565 5.007037-5.198395 8.454556-4.007267 8.234545 2.948145 16.633842 6.517437 24.929786 10.628058 3.288906 1.629103 4.622274 5.600555 3.00238 8.871041C394.439002 190.519148 392.087445 191.868889 389.658116 191.868889zM789.478174 189.279924c-0.917906 0-1.839905-0.179079-2.714831-0.581238-7.838525-3.529383-15.884782-6.620791-23.890107-9.166777-3.476171-1.11438-5.402033-4.839215-4.29277-8.328689 1.116427-3.478218 4.805446-5.378497 8.333806-4.293793 8.478092 2.715855 16.987906 5.975085 25.27464 9.712199 3.345188 1.49812 4.824889 5.420453 3.327792 8.755408C794.411533 187.830923 792.000624 189.279924 789.478174 189.279924zM636.479571 189.17657c-2.495844 0-4.88424-1.424442-6.000668-3.839445-1.532913-3.310396-0.097214-7.241938 3.229554-8.779967 8.374738-3.895727 16.870226-7.245008 25.221428-9.958816 3.494591-1.111311 7.217379 0.776689 8.344039 4.254907 1.119497 3.477194-0.774643 7.214309-4.257977 8.340969-7.844665 2.545986-15.835663 5.703909-23.75503 9.361205C638.373711 188.985212 637.411803 189.17657 636.479571 189.17657zM237.12614 186.524161c-2.601244 0-5.055133-1.534959-6.121418-4.087085-1.388627-3.370771 0.212848-7.250124 3.587712-8.648984 8.478092-3.501754 17.08512-6.517437 25.575492-8.947789 3.557012-1.074472 7.1744 1.032516 8.191566 4.535293 1.004887 3.520173-1.029446 7.192819-4.54348 8.188496-8.021697 2.302439-16.152888 5.130857-24.156166 8.456602C238.838132 186.371688 237.966275 186.524161 237.12614 186.524161zM327.14127 172.143639c-0.280386 0-0.566912-0.01228-0.864694-0.049119-8.314363-1.074472-16.256242-1.51347-25.082258-1.099031-4.104481 0.385786-6.767124-2.638083-6.936993-6.2831-0.176009-3.651157 2.63706-6.764054 6.291287-6.933923 9.495258-0.502443 18.345834 0 27.432793 1.175779 3.624551 0.480954 6.181793 3.792373 5.719258 7.424086C333.256548 169.71431 330.41892 172.143639 327.14127 172.143639zM727.006354 158.336168c-4.837168-0.493234-9.484002-0.73678-13.855566-0.73678-4.64888 0-9.252735 0.218988-13.833053 0.605797-3.63683 0.311085-6.334265 3.518127-6.025227 7.16519 0.291642 3.450589 3.179412 6.051833 6.577812 6.051833 0.195451 0 0.385786-0.01535 0.586354-0.024559 4.189416-0.36532 8.429996-0.556679 12.69309-0.556679 3.958148 0 8.135284 0.218988 12.510942 0.657986 0.231267 0.027629 0.456395 0.042979 0.687662 0.042979 3.342118 0 6.224772-2.552126 6.565533-5.950526C733.292524 161.945369 730.634997 158.695349 727.006354 158.336168z"/></g></g></symbol><symbol id="doc" viewBox="0 0 200 200"><g class="transform-group"><g transform="scale(0.1953125, 0.1953125)"><path d="M512 1024c-282.794667 0-512-229.205333-512-512s229.205333-512 512-512 512 229.205333 512 512S794.794667 1024 512 1024zM512 56.888889C260.664889 56.888889 56.888889 260.664889 56.888889 512s203.776 455.111111 455.111111 455.111111c251.335111 0 455.111111-203.776 455.111111-455.111111S763.335111 56.888889 512 56.888889zM398.222222 312.888889l341.333333 0L739.555556 739.555556 398.222222 739.555556 398.222222 312.888889zM455.111111 682.666667l227.555556 0L682.666667 369.777778 455.111111 369.777778 455.111111 682.666667zM483.555556 512l170.666667 0 0 28.444444-170.666667 0L483.555556 512zM483.555556 426.666667l170.666667 0L654.222222 455.111111l-170.666667 0L483.555556 426.666667zM625.777778 625.777778 483.555556 625.777778l0-28.444444L625.777778 597.333333 625.777778 625.777778zM369.777778 284.444444 341.333333 284.444444l0 312.888889 28.444444 0 0 56.888889L284.444444 654.222222 284.444444 227.555556l341.333333 0 0 56.888889-56.888889 0L369.777778 284.444444z"/></g></g></symbol><symbol id="lift" viewBox="0 0 200 200"><g class="transform-group"><g transform="scale(0.1953125, 0.1953125)"><path d="M613.600859 382.054764c-33.866744 41.229899-74.11782 81.480975-120.743177 120.743177l233.386884 0C678.631591 465.007113 641.08327 424.756037 613.600859 382.054764zM476.661254 664.76976l267.253628 0 0 120.743177-267.253628 0 0-120.743177ZM709.872226 0 314.127774 0C140.64003 0 0 140.64003 0 314.127774l0 395.744452c0 173.487743 140.64003 314.127774 314.127774 314.127774l395.744452 0c173.487743 0 314.127774-140.64003 314.127774-314.127774L1024 314.127774C1024 140.64003 883.35997 0 709.872226 0zM381.686606 231.861479l99.392541 0 0-79.513279 54.481065 0 0 79.513279 153.13729 0 0-79.513279 54.481065 0 0 79.513279 117.0616 0 0 51.537059-117.0616 0 0 73.624011-54.481065 0 0-73.624011L535.560211 283.398539l0 73.624011-54.481065 0 0-73.624011-99.392541 0L381.686606 231.861479zM289.655964 523.412262l0 262.100675c0 51.041994-20.86311 77.546839-62.580535 79.513279-20.126795 1.472631-42.460023 1.961414-66.997172 1.472631-1.96644-19.636755-4.911702-40.003544-8.83453-61.107904 24.048366 1.961414 42.94378 2.945262 56.690011 2.945262 18.647881 0.488783 27.977476-10.06591 27.977476-31.657797L235.911215 550.652166c-24.543431 12.76364-52.030868 26.998654-82.458541 42.701273l-7.361899-64.789482c30.427673-12.757357 60.371589-26.00978 89.820439-39.757268L235.911215 343.033812l-88.349065 0 0-51.537059 88.349065 0L235.911215 148.666623l53.744749 0 0 142.830129 83.931172 0 0 51.537059-83.931172 0 0 120.006862c27.482411-13.741205 54.481065-27.977476 80.98591-42.701273 1.472631 24.543431 3.432788 44.173904 5.890524 58.898958C359.840904 487.582848 330.885862 502.307902 289.655964 523.412262zM800.604892 875.333377l-56.690011 0 0-39.757268L476.661254 835.576109l0 39.757268-56.690011 0L419.971243 614.705332l380.634906 0L800.606149 875.333377zM839.625844 577.893327c-37.305814-20.614321-70.678749-42.207464-100.128856-64.789482l0 39.020952L472.979676 552.124797l0-33.130428c-29.450107 23.559583-60.865397 46.382851-94.238332 68.469803-8.347003-11.284726-21.109386-26.504845-38.284637-45.646535 106.506907-64.294416 188.717914-135.709481 246.639306-214.245194l69.942434 0-10.307161 13.252423c53.00969 78.040648 130.06649 139.148552 231.177937 183.322456C862.201579 544.274116 849.43794 562.190707 839.625844 577.893327z"/></g></g></symbol><symbol id="people" viewBox="0 0 350 350">
<g>
	<path d="M175,171.173c38.914,0,70.463-38.318,70.463-85.586C245.463,38.318,235.105,0,175,0s-70.465,38.318-70.465,85.587
		C104.535,132.855,136.084,171.173,175,171.173z"/>
	<path d="M41.909,301.853C41.897,298.971,41.885,301.041,41.909,301.853L41.909,301.853z"/>
	<path d="M308.085,304.104C308.123,303.315,308.098,298.63,308.085,304.104L308.085,304.104z"/>
	<path d="M307.935,298.397c-1.305-82.342-12.059-105.805-94.352-120.657c0,0-11.584,14.761-38.584,14.761
		s-38.586-14.761-38.586-14.761c-81.395,14.69-92.803,37.805-94.303,117.982c-0.123,6.547-0.18,6.891-0.202,6.131
		c0.005,1.424,0.011,4.058,0.011,8.651c0,0,19.592,39.496,133.08,39.496c113.486,0,133.08-39.496,133.08-39.496
		c0-2.951,0.002-5.003,0.005-6.399C308.062,304.575,308.018,303.664,307.935,298.397z"/>
</g>
<g>
</g>
<g>
</g>
<g>
</g>
<g>
</g>
<g>
</g>
<g>
</g>
<g>
</g>
<g>
</g>
<g>
</g>
<g>
</g>
<g>
</g>
<g>
</g>
<g>
</g>
<g>
</g>
<g>
</g>
</symbol><symbol id="scene-home" viewBox="0 0 200 200"><g class="transform-group"><g transform="scale(0.1953125, 0.1953125)"><path d="M761.642199 540.155247c0-18.824741 15.402805-34.715663 34.472116-34.715663 19.313881 0 34.472116 15.890922 34.472116 34.715663l0 337.625554c0 19.069311-15.158235 34.472116-34.472116 34.472116l-0.733711 0L228.189607 912.252917c-19.313881 0-34.715663-15.402805-34.715663-34.472116l0-0.733711L193.473945 540.155247c0-18.824741 15.401782-34.715663 34.715663-34.715663 19.069311 0 34.226522 15.890922 34.226522 34.715663l0 302.909891 110.74936 0L373.16549 502.993882c0-11.490705 9.535167-21.024849 20.781302-21.024849l0.48914 0 235.677651 0c11.490705 0 20.535709 9.534144 20.535709 21.024849l0 0.48914 0 339.581092 110.99393 0L761.643222 540.155247 761.642199 540.155247zM414.482501 843.065138 414.482501 843.065138l195.093327 0L609.575828 524.019755l-195.093327 0L414.482501 843.065138 414.482501 843.065138zM123.064338 549.689391 123.064338 549.689391c-13.935384 13.447267-35.204803 13.447267-49.140187 0-13.446243-13.446243-13.446243-35.204803 0-48.651047L487.825926 87.38114c13.201673-13.446243 35.204803-13.446243 48.65207 0l0.48914 0.733711 412.924517 412.924517c13.690814 13.446243 13.690814 35.204803 0 48.651047-13.201673 13.447267-35.204803 13.447267-48.651047 0L512.273734 160.724565 123.064338 549.689391 123.064338 549.689391z"/></g></g></symbol><symbol id="scene-law" viewBox="0 0 200 200"><g class="transform-group"><g transform="scale(0.1953125, 0.1953125)"><path d="M349.727685 172.556031l224.390583 123.766838c6.200212 3.400446 14.123672 1.348718 17.699104-4.552689l6.445806-10.695596c3.603061-5.897314 1.478677-13.495362-4.692882-16.920368l-224.400816-123.742279c-6.199189-3.425006-14.168698-1.376347-17.691941 4.499477l-6.506181 10.723226c-3.568269 5.921873-1.471514 13.495362 4.752234 16.919345l0 0L349.727685 172.553984zM155.401838 494.098281l224.38956 123.791397c6.203282 3.347235 14.120602 1.327228 17.696034-4.548596l6.473435-10.695596c3.599991-5.872754 1.450025-13.522991-4.724605-16.944927L174.820096 461.98284c-6.196119-3.428076-14.120602-1.348718-17.672498 4.520967l-6.469342 10.698666C147.053706 483.072157 149.178089 490.648716 155.401838 494.098281L155.401838 494.098281 155.401838 494.098281zM946.675402 645.282562l-449.088158-222.319411 60.335157-99.867522c3.603061-5.901407 1.450025-13.501502-4.700045-16.926508L351.27697 194.798615c-6.203282-3.40147-14.169721-1.348718-17.723663 4.551666L191.019033 435.109796c-3.501754 5.900384-1.400906 13.522991 4.746094 16.926508l201.99962 111.367437c6.147 3.425006 14.120602 1.351787 17.643845-4.520967l60.435441-99.899244 426.088328 260.356726c5.999644 3.674693 13.850449 1.822508 17.398252-4.050246l32.391734-53.611012C955.245591 655.830803 952.973852 648.433322 946.675402 645.282562L946.675402 645.282562 946.675402 645.282562zM1017.558799 676.575266l-22.497387-12.346189c-6.122441-3.402493-14.148231-1.347694-17.692964 4.552689l-38.893822 64.282049c-3.547803 5.872754-1.370207 13.495362 4.753257 16.891715l22.441105 12.349259c6.17463 3.445472 14.148231 1.3743 17.720593-4.527107l38.863123-64.282049C1025.801531 687.594227 1023.701706 679.975712 1017.558799 676.575266L1017.558799 676.575266 1017.558799 676.575266zM532.68153 752.930281l-27.047006 0c3.3984-3.64604-8.272407-0.271176-8.272407-5.52483l0-64.205301L66.521554 683.20015l0 64.205301c0 5.247514-22.992667 1.87265-19.558451 5.52483L19.925307 752.930281c-11.812023 0-19.674085 15.371082-19.674085 26.565029l0 64.212464c0 11.169387 7.886621 31.668257 19.674085 31.668257l512.75213 0c11.79872 0 30.944779-20.49887 30.944779-31.668257l0-64.212464C563.622216 768.328993 544.479227 752.930281 532.68153 752.930281L532.68153 752.930281 532.68153 752.930281zM497.362116 843.710844 66.521554 843.710844c-12.357446 0-33.139771-20.298302-33.139771-32.092929 0.038886-11.79872 20.783349-32.143071 33.139771-32.122605l430.840562 0c12.395308 0 33.168424 20.348444 33.119305 32.122605C530.481422 823.441195 509.757424 843.710844 497.362116 843.710844L497.362116 843.710844 497.362116 843.710844zM497.362116 843.710844"/></g></g></symbol><symbol id="scene-list" viewBox="0 0 200 200"><g class="transform-group"><g transform="scale(0.1953125, 0.1953125)"><path d="M932.064 828.704C925.408 822.048 916.64 818.4 907.328 818.4L99.04 818.4C79.712 818.4 64 834.112 64 853.44 64 872.768 79.712 888.48 99.04 888.48L907.328 888.48C926.656 888.48 942.368 872.768 942.368 853.44 942.368 844.128 938.72 835.36 932.064 828.704ZM907.328 468.576 99.04 468.576C79.712 468.576 64 484.288 64 503.616 64 522.944 79.712 538.656 99.04 538.656L907.328 538.656C926.656 538.656 942.368 522.944 942.368 503.616 942.368 494.304 938.72 485.536 932.064 478.88 925.408 472.224 916.64 468.576 907.328 468.576ZM932.064 138.336C925.408 131.68 916.64 128 907.328 128L99.04 128C79.712 128 64 143.744 64 163.072 64 182.368 79.712 198.112 99.04 198.112L907.328 198.112C926.656 198.112 942.368 182.368 942.368 163.072 942.368 153.76 938.72 144.96 932.064 138.336Z"/></g></g></symbol><symbol id="show-bike" viewBox="0 0 24 24"><g id="directions-bike"><path d="M16,4.8c1,0,1.8-0.8,1.8-1.8S17,1.2,16,1.2c-1,0-1.8,0.8-1.8,1.8S15,4.8,16,4.8z M19,12c-2.8,0-5,2.2-5,5c0,2.8,2.2,5,5,5c2.8,0,5-2.2,5-5C24,14.2,21.8,12,19,12z M19,20.5c-1.9,0-3.5-1.6-3.5-3.5s1.6-3.5,3.5-3.5c1.9,0,3.5,1.6,3.5,3.5S20.9,20.5,19,20.5z M14.8,10H19V8.2h-3.2l-1.9-3.3c-0.3-0.5-0.8-0.8-1.5-0.8c-0.5,0-0.9,0.2-1.2,0.5L7.5,8.3C7.2,8.6,7,9,7,9.5c0,0.6,0.3,1.2,0.8,1.5l3.4,2v5H13v-6.5l-2.2-1.7l2.3-2.3L14.8,10z M5,12c-2.8,0-5,2.2-5,5c0,2.8,2.2,5,5,5c2.8,0,5-2.2,5-5C10,14.2,7.8,12,5,12z M5,20.5c-1.9,0-3.5-1.6-3.5-3.5s1.6-3.5,3.5-3.5c1.9,0,3.5,1.6,3.5,3.5S6.9,20.5,5,20.5z"/></g></symbol><symbol id="show-button" viewBox="0 0 24 24"><g id="play-arrow"><polygon points="8,5 8,19 19,12 "/></g></symbol><symbol id="show-calendar" viewBox="0 0 24 24"><g id="today"><path d="M19,3h-1V1h-2v2H8V1H6v2H5C3.9,3,3,3.9,3,5l0,14c0,1.1,0.9,2,2,2h14c1.1,0,2-0.9,2-2V5C21,3.9,20.1,3,19,3z M19,19H5V8h14V19z"/><rect x="7" y="10" width="5" height="5"/></g></symbol><symbol id="show-charts" viewBox="0 0 24 24"><g id="data-usage"><path d="M13,2.1v3c3.4,0.5,6,3.4,6,6.9c0,0.9-0.2,1.7-0.5,2.5l2.6,1.5c0.6-1.2,0.9-2.6,0.9-4.1C22,6.8,18.1,2.6,13,2.1z M12,19c-3.9,0-7-3.1-7-7c0-3.5,2.6-6.4,6-6.9v-3C5.9,2.5,2,6.8,2,12c0,5.5,4.5,10,10,10c3.3,0,6.2-1.6,8.1-4.1l-2.6-1.5C16.2,18,14.2,19,12,19z"/></g></symbol><symbol id="show-dialog" viewBox="0 0 24 24"><g id="message"><path d="M20,2H4C2.9,2,2,2.9,2,4l0,18l4-4h14c1.1,0,2-0.9,2-2V4C22,2.9,21.1,2,20,2z M18,14H6v-2h12V14z M18,11H6V9h12V11z M18,8H6V6h12V8z"/></g></symbol><symbol id="show-feedback" viewBox="0 0 24 24"><g id="hangout"><path d="M11.5,2C6.8,2,3,5.8,3,10.5S6.8,19,11.5,19H12v3.5c4.9-2.3,8-7.5,8-12C20,5.8,16.2,2,11.5,2z M11,11l-1,2H8.5l1-2H8V8h3V11z M15,11l-1,2h-1.5l1-2H12V8h3V11z"/></g></symbol><symbol id="show-form" viewBox="0 0 434.168 434.168">
<g>
	<path d="M332.318,230.196V34.967H40.93v364.235h134.038c9.616,0,17.483,7.867,17.483,17.483s-7.867,17.483-17.483,17.483H23.446
		c-9.616,0-17.483-7.867-17.483-17.483V17.483C5.963,7.867,13.831,0,23.446,0h326.354c9.616,0,17.483,7.867,17.483,17.483v212.713
		c0,9.616-7.867,17.483-17.483,17.483S332.318,239.812,332.318,230.196z M422.357,272.739c-7.285-6.411-18.357-5.828-24.768,1.457
		l-95.867,106.648l-48.079-46.331c-6.993-6.702-18.066-6.411-24.768,0.583s-6.411,18.066,0.583,24.768l61.191,58.86
		c3.205,3.205,7.576,4.954,12.238,4.954c0.291,0,0.291,0,0.583,0c4.662-0.291,9.324-2.331,12.238-5.828l107.814-120.052
		C430.224,290.222,429.641,279.15,422.357,272.739z M268.212,101.986H110.863c-9.616,0-17.483,7.867-17.483,17.483
		s7.867,17.483,17.483,17.483h157.349c9.616,0,17.483-7.867,17.483-17.483S277.828,101.986,268.212,101.986z M285.696,215.627
		c0-9.616-7.867-17.483-17.483-17.483H110.863c-9.616,0-17.483,7.867-17.483,17.483c0,9.616,7.867,17.483,17.483,17.483h157.349
		C277.828,233.11,285.696,225.243,285.696,215.627z M110.863,291.388c-9.616,0-17.483,7.867-17.483,17.483
		c0,9.616,7.867,17.483,17.483,17.483h46.622c9.616,0,17.483-7.867,17.483-17.483c0-9.616-7.867-17.483-17.483-17.483H110.863z"/>
</g>
<g>
</g>
<g>
</g>
<g>
</g>
<g>
</g>
<g>
</g>
<g>
</g>
<g>
</g>
<g>
</g>
<g>
</g>
<g>
</g>
<g>
</g>
<g>
</g>
<g>
</g>
<g>
</g>
<g>
</g>
</symbol><symbol id="show-github" viewBox="0 0 30 30">
    <!-- Generator: Sketch 3.3.3 (12081) - http://www.bohemiancoding.com/sketch -->
    <title>Shape</title>
    <desc>Created with Sketch.</desc>
    
    <g id="Page-1" stroke="none" stroke-width="1" fill-rule="evenodd" sketch:type="MSPage">
        <path d="M15,0 C6.7,0 0,6.7 0,15 C0,21.6 4.3,27.2 10.3,29.2 C11.1,29.3 11.3,28.9 11.3,28.5 L11.3,25.9 C7.1,26.8 6.2,23.9 6.2,23.9 C5.5,22.2 4.5,21.7 4.5,21.7 C3.1,20.8 4.6,20.8 4.6,20.8 C6.1,20.9 6.9,22.3 6.9,22.3 C8.2,24.6 10.4,23.9 11.3,23.5 C11.4,22.5 11.8,21.9 12.3,21.5 C9,21.1 5.5,19.8 5.5,14.1 C5.5,12.5 6.1,11.1 7,10.1 C6.8,9.7 6.3,8.2 7.1,6.1 C7.1,6.1 8.4,5.7 11.2,7.6 C12.4,7.3 13.7,7.1 15,7.1 C16.3,7.1 17.6,7.3 18.8,7.6 C21.7,5.7 22.9,6.1 22.9,6.1 C23.7,8.2 23.2,9.7 23,10.1 C24,11.1 24.5,12.5 24.5,14.1 C24.5,19.9 21,21.1 17.7,21.5 C18.2,22 18.7,22.9 18.7,24.3 L18.7,28.4 C18.7,28.8 19,29.3 19.7,29.1 C25.7,27.1 29.9,21.5 29.9,14.9 C30,6.7 23.3,0 15,0 L15,0 Z" id="Shape" sketch:type="MSShapeGroup"/>
    </g>
</symbol><symbol id="show-icon-bg" viewBox="0 0 320 320">
    <!-- Generator: Sketch 3.3.3 (12081) - http://www.bohemiancoding.com/sketch -->
    <title>show-icon-bg</title>
    <desc>Created with Sketch.</desc>
    
    <g id="Page-1" stroke="none" stroke-width="1" fill-rule="evenodd" sketch:type="MSPage">
        <path d="M160,320 C270,320 320,270 320,160 C320,50 270,1.34711146e-14 160,0 C50,-1.34711148e-14 6.7355574e-15,50 0,160 C7.34788037e-15,270 50,320 160,320 Z" sketch:type="MSShapeGroup"/>
    </g>
</symbol><symbol id="show-icon" viewBox="0 0 24 24"><g id="star-outline"><path d="M22,9.244l-7.191-0.617L12,2L9.191,8.627L2,9.244l5.455,4.727L5.82,21L12,17.272L18.18,21l-1.635-7.029L22,9.244z M12,15.396l-3.763,2.27l0.996-4.281L5.91,10.507l4.38-0.376L12,6.095l1.71,4.036l4.38,0.376l-3.322,2.878l0.996,4.281L12,15.396z"/></g></symbol><symbol id="show-img-text" viewBox="0 0 24 24"><g id="favorite-outline"><path d="M16.5,3c-1.7,0-3.4,0.8-4.5,2.1C10.9,3.8,9.2,3,7.5,3C4.4,3,2,5.4,2,8.5c0,3.8,3.4,6.9,8.6,11.5l1.4,1.3l1.4-1.3c5.1-4.7,8.6-7.8,8.6-11.5C22,5.4,19.6,3,16.5,3z M12.1,18.6L12,18.6l-0.1-0.1C7.1,14.2,4,11.4,4,8.5C4,6.5,5.5,5,7.5,5c1.5,0,3,1,3.6,2.4h1.9C13.5,6,15,5,16.5,5c2,0,3.5,1.5,3.5,3.5C20,11.4,16.9,14.2,12.1,18.6z"/></g></symbol><symbol id="show-img" viewBox="0 0 24 24"><g id="drive-drawing"><path d="M19,3H5C3.9,3,3,3.9,3,5v14c0,1.1,0.9,2,2,2h14c1.1,0,2-0.9,2-2V5C21,3.9,20.1,3,19,3z M18,18h-6v-5.8c-0.7,0.6-1.5,1-2.5,1c-2,0-3.7-1.7-3.7-3.7s1.7-3.7,3.7-3.7c2,0,3.7,1.7,3.7,3.7c0,1-0.4,1.8-1,2.5H18V18z"/></g></symbol><symbol id="show-info" viewBox="0 0 24 24"><g id="info-outline"><path d="M11,17h2v-6h-2V17z M12,2C6.5,2,2,6.5,2,12s4.5,10,10,10c5.5,0,10-4.5,10-10S17.5,2,12,2z M12,20c-4.4,0-8-3.6-8-8s3.6-8,8-8c4.4,0,8,3.6,8,8S16.4,20,12,20z M11,9h2V7h-2V9z"/></g></symbol><symbol id="show-layout" viewBox="0 0 24 24"><g id="view-quilt"><path d="M10,18h5v-6h-5V18z M4,18h5V5H4V18z M16,18h5v-6h-5V18z M10,5v6h11V5H10z"/></g></symbol><symbol id="show-list" viewBox="0 0 24 24"><g id="list"><path d="M3,13h2v-2H3V13z M3,17h2v-2H3V17z M3,9h2V7H3V9z M7,13h14v-2H7V13z M7,17h14v-2H7V17z M7,7v2h14V7H7z"/></g></symbol><symbol id="show-native" viewBox="0 0 24 24"><g id="place"><path d="M12,2C8.1,2,5,5.1,5,9c0,5.2,7,13,7,13s7-7.8,7-13C19,5.1,15.9,2,12,2z M12,11.5c-1.4,0-2.5-1.1-2.5-2.5s1.1-2.5,2.5-2.5c1.4,0,2.5,1.1,2.5,2.5S13.4,11.5,12,11.5z"/></g></symbol><symbol id="show-other" viewBox="0 0 24 24"><g id="more-horiz"><path d="M6,10c-1.1,0-2,0.9-2,2s0.9,2,2,2c1.1,0,2-0.9,2-2S7.1,10,6,10z M18,10c-1.1,0-2,0.9-2,2s0.9,2,2,2c1.1,0,2-0.9,2-2S19.1,10,18,10z M12,10c-1.1,0-2,0.9-2,2s0.9,2,2,2c1.1,0,2-0.9,2-2S13.1,10,12,10z"/></g></symbol><symbol id="show-project" viewBox="0 0 24 24"><g id="circles-extended"><path d="M12,10c2.2,0,4-1.8,4-4c0-2.2-1.8-4-4-4C9.8,2,8,3.8,8,6C8,8.2,9.8,10,12,10z M12,4c1.1,0,2,0.9,2,2c0,1.1-0.9,2-2,2c-1.1,0-2-0.9-2-2C10,4.9,10.9,4,12,4z M6,13c-2.2,0-4,1.8-4,4c0,2.2,1.8,4,4,4c2.2,0,4-1.8,4-4C10,14.8,8.2,13,6,13z M6,19c-1.1,0-2-0.9-2-2c0-1.1,0.9-2,2-2c1.1,0,2,0.9,2,2C8,18.1,7.1,19,6,19z M12,11.1c-1,0-1.9,0.9-1.9,1.9s0.9,1.9,1.9,1.9c1,0,1.9-0.9,1.9-1.9S13,11.1,12,11.1z M18,13c-2.2,0-4,1.8-4,4c0,2.2,1.8,4,4,4c2.2,0,4-1.8,4-4C22,14.8,20.2,13,18,13z M18,19c-1.1,0-2-0.9-2-2c0-1.1,0.9-2,2-2c1.1,0,2,0.9,2,2C20,18.1,19.1,19,18,19z"/></g></symbol><symbol id="show-scene" viewBox="0 0 200 200"><g class="transform-group"><g transform="scale(0.1953125, 0.1953125)"><path d="M867.995947 422.463778 298.756291 422.463778l572.107983-194.142675c35.866882-10.969842 56.3064-48.973388 45.600571-84.989673l-14.668071-49.335638c-8.572236-28.833699-35.553751-48.971341-65.615417-48.971341-6.597255 0-13.168927 0.959861-19.530822 2.850931l-0.468674 0.13917L126.242216 282.142915c-35.866882 10.969842-56.307424 48.973388-45.599548 84.990696l14.667048 49.334615c4.044106 13.600763 12.186554 25.264407 22.814612 33.794687-8.433066 11.381212-13.430894 25.454742-13.430894 40.675398l0 433.196213c0 37.755905 30.716582 68.473511 68.473511 68.473511l694.829002 0c37.755905 0 68.473511-30.717605 68.473511-68.473511l0-433.196213C936.470481 453.181383 905.752876 422.463778 867.995947 422.463778zM885.305171 490.937289l0 68.77641L684.655292 559.713698l69.530586-86.084611 113.810069 0C877.540324 473.629087 885.305171 481.392912 885.305171 490.937289zM173.166945 473.629087 347.303984 473.629087l-76.42153 76.422554c-2.819209 2.819209-4.842285 6.133697-6.070252 9.662057L155.859767 559.713698l0-68.77641C155.859767 481.392912 163.623591 473.629087 173.166945 473.629087zM414.288584 479.003492c1.641383-1.641383 3.007497-3.452635 4.109598-5.374404l270.01776 0-63.352887 78.437443c-1.901303 2.354628-3.313465 4.944616-4.25593 7.647167L333.578378 559.713698 414.288584 479.003492zM141.344169 331.028299l0.468674-0.13917L831.595922 96.814999c1.5104-0.414439 3.050476-0.624217 4.583388-0.624217 7.588839 0 14.404058 5.094018 16.571421 12.386098l14.668071 49.335638c2.718925 9.147334-2.51017 18.803251-11.658528 21.522176l-0.468674 0.13917L165.509545 413.649018c-1.5104 0.414439-3.049452 0.624217-4.582365 0.624217-7.589862 0-14.404058-5.094018-16.572444-12.387122l-14.667048-49.334615C126.966717 343.404164 132.195811 333.748247 141.344169 331.028299zM867.995947 941.441703 173.166945 941.441703c-9.543354 0-17.308201-7.764847-17.308201-17.308201l0-313.254493 729.445404 0 0 313.254493C885.305171 933.676855 877.540324 941.441703 867.995947 941.441703z"/></g></g></symbol><symbol id="show-slide" viewBox="0 0 24 24"><g id="view-array"><path d="M4,18h3V5H4V18z M18,5v13h3V5H18z M8,18h9V5H8V18z"/></g></symbol><symbol id="tingle-checkbox-checked" viewBox="0 0 128 128">
  <path d="M 42,75 L 113,19 127,37 40,107 1,61 18,47 Z"/>
</symbol><symbol id="tingle-photo-field-camera" viewBox="0 0 612 612">
<g>
	<g>
		<path d="M581.347,146.42H453.089l-4.336-30.646l-3.326-20.661c-1.343-8.323-5.75-15.224-12.665-20.988
			c-7.079-5.899-14.655-8.991-22.985-8.991H201.228c-8.33,0-15.991,2.992-22.992,8.991c-6.994,5.999-10.711,13.035-11.99,20.988
			l-3.333,20.661l-4.663,30.646H30.654C13.66,146.42,0,160.081,0,176.406v339.812c0,16.986,13.66,30.646,30.654,30.646h550.693
			c16.993,0,30.653-13.66,30.653-30.646V176.406C612,160.081,598.34,146.42,581.347,146.42z M575.021,509.887H36.652V183.065H158.25
			c18.323,0,34.144-13.632,36.645-31.314l4.329-30.646l3.333-18.991h206.551l3,18.991l4.662,30.646
			c2.687,17.654,18.656,31.314,36.318,31.314h121.932V509.887z"/>
		<path d="M515.718,270.016c15.991,0,29.317-13.653,29.317-29.644c0-16.326-12.992-29.986-29.317-29.986
			s-29.317,13.66-29.317,29.986C486.4,256.363,499.727,270.016,515.718,270.016z"/>
		<path d="M305.499,192.731c-37.64,0-70.291,13.653-97.277,40.639s-40.646,59.637-40.646,97.285c0,37.64,13.66,70.291,40.646,97.277
			s59.637,39.751,97.277,40.312c74.634,1.102,138.805-63.625,137.924-137.59c-0.448-37.981-13.66-70.298-40.64-97.285
			C375.797,206.384,343.48,192.731,305.499,192.731z M376.792,402.282c-19.651,19.651-43.305,29.311-71.293,29.311
			c-27.647,0-51.3-9.659-70.959-29.311c-19.659-19.659-29.317-43.646-29.317-71.627c0-27.654,9.659-51.642,29.317-71.3
			c19.659-19.652,43.312-29.645,70.959-29.645c27.988,0,51.642,9.993,71.293,29.645c19.658,19.659,29.651,43.646,29.651,71.3
			C406.443,358.637,396.45,382.623,376.792,402.282z"/>
	</g>
</g>
<g>
</g>
<g>
</g>
<g>
</g>
<g>
</g>
<g>
</g>
<g>
</g>
<g>
</g>
<g>
</g>
<g>
</g>
<g>
</g>
<g>
</g>
<g>
</g>
<g>
</g>
<g>
</g>
<g>
</g>
</symbol><symbol id="tingle-select-field-arrow-right" viewBox="0 0 1024 1024">
  <path d="M338.52 1.389l30.176-30.173 316.784 316.784-316.784 316.784-30.168-30.171 286.611-286.611z" transform="translate(0, 812) scale(1, -1)"/>
</symbol><symbol id="tingle-tip-error" viewBox="0 0 476.737 476.737">
<g>
	<g>
		<g>
			<path style="fill:#010002;" d="M238.369,0C106.726,0,0,106.726,0,238.369c0,131.675,106.726,238.369,238.369,238.369
				c131.675,0,238.369-106.694,238.369-238.369C476.737,106.726,370.043,0,238.369,0z M348.813,150.395l-88.578,88.61l78.407,87.338
				c6.198,6.198,6.198,16.304,0,22.47c-6.166,6.198-16.273,6.198-22.438,0l-78.407-87.338l-87.37,87.338
				c-6.198,6.198-16.273,6.198-22.47,0c-6.198-6.166-6.198-16.273,0-22.47l88.578-88.578l-78.376-87.37
				c-6.198-6.198-6.198-16.273,0-22.47s16.273-6.198,22.47,0l78.407,87.37l87.338-87.37c6.198-6.198,16.273-6.198,22.47,0
				C355.042,134.122,355.01,144.197,348.813,150.395z"/>
		</g>
	</g>
</g>
<g>
</g>
<g>
</g>
<g>
</g>
<g>
</g>
<g>
</g>
<g>
</g>
<g>
</g>
<g>
</g>
<g>
</g>
<g>
</g>
<g>
</g>
<g>
</g>
<g>
</g>
<g>
</g>
<g>
</g>
</symbol><symbol id="tingle-tip-fail" viewBox="0 0 108.364 108.364">
<g>
	<g>
		<path d="M54.182,0C24.258,0,0,24.258,0,54.182c0,29.924,24.258,54.183,54.182,54.183c29.923,0,54.182-24.259,54.182-54.183
			C108.364,24.258,84.105,0,54.182,0z M68.713,33.622c3.424,0,6.201,2.777,6.201,6.201c0,3.426-2.777,6.203-6.201,6.203
			c-3.423,0-6.203-2.777-6.203-6.203C62.51,36.399,65.29,33.622,68.713,33.622z M40.594,33.622c3.423,0,6.2,2.777,6.2,6.201
			c0,3.426-2.777,6.203-6.2,6.203c-3.423,0-6.201-2.777-6.201-6.203C34.393,36.399,37.17,33.622,40.594,33.622z M76.607,79.098
			c-1.521,0.66-3.286-0.041-3.944-1.562c-2.894-6.689-9.731-11.012-17.421-11.012c-7.868,0-14.747,4.32-17.523,11.005
			c-0.479,1.153-1.596,1.85-2.771,1.85c-0.384,0-0.773-0.073-1.15-0.229c-1.53-0.637-2.255-2.393-1.62-3.922
			c3.71-8.932,12.764-14.703,23.064-14.703c10.084,0,19.084,5.742,22.928,14.63C78.828,76.674,78.128,78.439,76.607,79.098z"/>
	</g>
</g>
<g>
</g>
<g>
</g>
<g>
</g>
<g>
</g>
<g>
</g>
<g>
</g>
<g>
</g>
<g>
</g>
<g>
</g>
<g>
</g>
<g>
</g>
<g>
</g>
<g>
</g>
<g>
</g>
<g>
</g>
</symbol><symbol id="tingle-tip-loading" viewBox="0 0 26.349 26.35">
<g>
	<g>
		<circle cx="13.792" cy="3.082" r="3.082"/>
		<circle cx="13.792" cy="24.501" r="1.849"/>
		<circle cx="6.219" cy="6.218" r="2.774"/>
		<circle cx="21.365" cy="21.363" r="1.541"/>
		<circle cx="3.082" cy="13.792" r="2.465"/>
		<circle cx="24.501" cy="13.791" r="1.232"/>
		<path d="M4.694,19.84c-0.843,0.843-0.843,2.207,0,3.05c0.842,0.843,2.208,0.843,3.05,0c0.843-0.843,0.843-2.207,0-3.05
			C6.902,18.996,5.537,18.988,4.694,19.84z"/>
		<circle cx="21.364" cy="6.218" r="0.924"/>
	</g>
</g>
<g>
</g>
<g>
</g>
<g>
</g>
<g>
</g>
<g>
</g>
<g>
</g>
<g>
</g>
<g>
</g>
<g>
</g>
<g>
</g>
<g>
</g>
<g>
</g>
<g>
</g>
<g>
</g>
<g>
</g>
</symbol><symbol id="tingle-tip-success" viewBox="0 0 369.946 369.946">
<g>
	<path style="fill:#010002;" d="M184.973,0C82.981,0,0,82.975,0,184.973s82.981,184.973,184.973,184.973
		s184.973-82.975,184.973-184.973S286.965,0,184.973,0z M150.777,263.873l-66.125-66.125l8.437-8.437l57.688,57.688l125.561-125.561
		l8.437,8.437L150.777,263.873z"/>
</g>
<g>
</g>
<g>
</g>
<g>
</g>
<g>
</g>
<g>
</g>
<g>
</g>
<g>
</g>
<g>
</g>
<g>
</g>
<g>
</g>
<g>
</g>
<g>
</g>
<g>
</g>
<g>
</g>
<g>
</g>
</symbol></svg>